<svg width="100" height="97" viewBox="0 0 100 97" fill="none" xmlns="http://www.w3.org/2000/svg">
<path id="Vector" d="M64.9286 50.925C64.3571 50.925 63.7619 50.828 63.1905 50.634C62.1169 50.2862 61.1813 49.5967 60.5213 48.6669C59.8612 47.7371 59.5116 46.6161 59.5238 45.4687V38.6545C54.1429 37.7815 50 33.0042 50 27.2812V11.5187C50 5.16525 55.0714 0 61.3095 0H88.6905C94.9286 0 100 5.16525 100 11.5187V27.2812C100 33.6347 94.9286 38.8 88.6905 38.8H76.5L69.1667 48.7425C68.119 50.149 66.5714 50.925 64.9286 50.925ZM61.3095 6.0625C58.3571 6.0625 55.9524 8.51175 55.9524 11.5187V27.2812C55.9524 30.2882 58.3571 32.7375 61.3095 32.7375H65.4762V43.65L73.5238 32.7375H88.7143C91.6667 32.7375 94.0714 30.2882 94.0714 27.2812V11.5187C94.0714 8.51175 91.6667 6.0625 88.7143 6.0625H61.3095ZM30.9524 56.9875C21.0952 56.9875 13.0952 48.8395 13.0952 38.8C13.0952 28.7605 21.0952 20.6125 30.9524 20.6125C40.8095 20.6125 48.8095 28.7605 48.8095 38.8C48.8095 48.8395 40.8095 56.9875 30.9524 56.9875ZM30.9524 26.675C24.381 26.675 19.0476 32.107 19.0476 38.8C19.0476 45.493 24.381 50.925 30.9524 50.925C37.5238 50.925 42.8571 45.493 42.8571 38.8C42.8571 32.107 37.5238 26.675 30.9524 26.675ZM0 74.6658C0 74.884 0.357142 97 30.9524 97C61.5476 97 61.9048 74.884 61.9048 74.6658V72.1437C61.9048 67.124 57.9048 63.05 52.9762 63.05H8.92857C4 63.05 0 67.124 0 72.1437V74.6658ZM5.95238 72.1437C5.95238 70.4705 7.28571 69.1125 8.92857 69.1125H52.9762C54.619 69.1125 55.9524 70.4705 55.9524 72.1437V74.6415C55.9524 75.2962 55.4286 90.9375 30.9524 90.9375C6.47619 90.9375 5.95238 75.2963 5.95238 74.6658V72.1437Z" fill="#225536"/>
</svg>
