<svg width="59" height="82" viewBox="0 0 59 82" fill="none" xmlns="http://www.w3.org/2000/svg">
<g id="Layer_1" clip-path="url(#clip0_304_486)">
<path id="Vector" d="M36.9841 81.4764H14.1904C12.873 81.4764 11.8095 80.4129 11.8095 79.0955C11.8095 77.778 12.873 76.7145 14.1904 76.7145H19.2539L17.5079 48.7701C17.5079 48.6748 17.5079 48.5875 17.5079 48.4923C15.5396 47.6193 13.6666 46.532 11.9285 45.2383C6.91265 41.5082 3.16662 36.151 1.38091 30.151C0.452338 27.0082 -0.277821 24.532 1.58726 22.0399C3.46027 19.5637 6.15869 19.5637 10.2381 19.5637H19.4047V18.1352C19.4047 15.7701 19.4047 13.7304 18.9841 13.3098C18.5714 12.8971 16.5396 12.8971 14.1825 12.8971C12.865 12.8971 11.8015 11.8336 11.8015 10.5161C11.8015 9.19865 12.865 8.13516 14.1825 8.13516C18.1508 8.13516 20.5396 8.13516 22.3492 9.95262C24.1587 11.7621 24.1587 14.1669 24.1587 18.1352V19.5637H30.7936V8.61135C30.7936 6.45262 31.6349 4.42087 33.1587 2.88913C34.6825 1.35738 36.7142 0.516113 38.873 0.516113C41.0317 0.516113 43.0634 1.35738 44.5873 2.88913C46.1111 4.42087 46.9523 6.45262 46.9523 8.61135V10.5161C46.9523 11.8336 45.8888 12.8971 44.5714 12.8971C43.2539 12.8971 42.1904 11.8336 42.1904 10.5161V8.61135C42.1904 7.7304 41.8333 6.87326 41.2142 6.25421C40.5873 5.62722 39.7539 5.27802 38.873 5.27802C37.992 5.27802 37.1587 5.62722 36.5317 6.25421C35.9127 6.87326 35.5555 7.73834 35.5555 8.61135V19.5637H48.5238C52.6111 19.5637 55.3095 19.5637 57.1825 22.0399C59.0555 24.524 58.3174 27.0002 57.3968 30.1431C55.6031 36.1431 51.8571 41.5002 46.8412 45.2383C45.1031 46.532 43.2301 47.6193 41.2619 48.4923C41.2619 48.5796 41.2619 48.6748 41.2619 48.7701L39.5238 76.7145H44.5873C45.9047 76.7145 46.9682 77.778 46.9682 79.0955C46.9682 80.4129 45.9047 81.4764 44.5873 81.4764H36.992H36.9841ZM24.0238 76.7145H34.746L36.4047 50.151C34.1111 50.7145 31.7619 51.024 29.3888 51.0002H29.3254C26.9841 51.0002 24.6508 50.7066 22.3809 50.151L24.0396 76.7145H24.0238ZM29.3809 46.2383C29.3809 46.2383 29.4285 46.2383 29.4523 46.2383C34.6508 46.2383 39.8095 44.532 43.992 41.4209C48.1904 38.3018 51.3253 33.8098 52.8253 28.7939C53.6666 25.9526 53.746 25.405 53.373 24.9129C52.9523 24.3574 51.5 24.3336 48.5238 24.3336H10.246C7.26186 24.3336 5.81742 24.3574 5.39678 24.9129C5.0317 25.3971 5.11107 25.9447 5.95234 28.8018C7.45234 33.8177 10.5873 38.3018 14.7857 41.4209C18.9603 44.532 24.1269 46.2383 29.3254 46.2383C29.3492 46.2383 29.3809 46.2383 29.3968 46.2383H29.3809Z" fill="white"/>
</g>
<defs>
<clipPath id="clip0_304_486">
<rect width="57.9206" height="80.9524" fill="white" transform="translate(0.428467 0.523926)"/>
</clipPath>
</defs>
</svg>
