<svg width="91" height="91" viewBox="0 0 91 91" fill="none" xmlns="http://www.w3.org/2000/svg">
<g id="Group">
<path id="Vector" d="M61.8201 20.9649C61.8201 13.1757 61.8201 9.2852 59.3999 6.86501C56.9798 4.44482 53.0893 4.44482 45.3001 4.44482C37.5109 4.44482 33.6204 4.44482 31.2002 6.86501C28.7801 9.2852 28.7801 13.1757 28.7801 20.9649M4 54.0049C4 38.4307 4 30.6415 8.84037 25.8052C13.6807 20.969 21.4658 20.9649 37.0401 20.9649H53.5601C69.1344 20.9649 76.9236 20.9649 81.7598 25.8052C86.5961 30.6456 86.6002 38.4307 86.6002 54.0049C86.6002 69.5792 86.6002 77.3684 81.7598 82.2046C76.9194 87.0409 69.1344 87.045 53.5601 87.045H37.0401C21.4658 87.045 13.6766 87.045 8.84037 82.2046C4.00413 77.3643 4 69.5792 4 54.0049Z" stroke="#225536" stroke-width="7"/>
<path id="Vector_2" d="M45.3001 67.7702C49.8637 67.7702 53.5601 64.6892 53.5601 60.8896C53.5601 57.09 49.8637 54.0049 45.3001 54.0049C40.7364 54.0049 37.04 50.9239 37.04 47.1202C37.04 43.3206 40.7364 40.2396 45.3001 40.2396M45.3001 67.7702C40.7364 67.7702 37.04 64.6892 37.04 60.8896M45.3001 67.7702V70.5249M45.3001 40.2396V37.4849M45.3001 40.2396C49.8637 40.2396 53.5601 43.3206 53.5601 47.1202" stroke="#225536" stroke-width="7" stroke-linecap="round"/>
</g>
</svg>
