<svg width="122" height="75" viewBox="0 0 122 75" fill="none" xmlns="http://www.w3.org/2000/svg">
<g id="Group 3747">
<path id="Vector" d="M58.3571 61.2406C58.268 65.0198 56.8551 68.1181 53.9775 70.4755C51.768 72.2858 49.1984 73.1434 46.3502 73.0743C40.3208 72.927 34.9842 68.0184 34.9222 61.1941C33.9923 61.1941 33.0602 61.1919 32.1269 61.1941C30.2717 61.1987 28.4075 61.3244 26.5636 61.1806C24.538 61.0231 23.1929 59.7418 22.3239 57.9531C21.8816 57.0423 21.6773 56.0669 21.7044 55.0507C21.7292 54.1161 22.3995 53.4319 23.2944 53.4093C24.1724 53.3866 24.8822 54.0731 24.9318 55.0032C24.9804 55.914 25.206 56.7455 25.8786 57.4139C26.3277 57.8602 26.8672 57.995 27.472 57.9939C29.0519 57.9893 30.6317 57.9939 32.2116 57.9939C33.1471 57.9939 34.0815 57.9973 35.017 57.9995C35.3183 57.9995 35.5485 57.9474 35.6523 57.5894C36.344 55.2184 37.7591 53.3379 39.7317 51.9184C46.243 47.2296 54.9491 49.9699 57.6936 57.5566C57.8549 58.0007 58.1269 57.9927 58.4688 57.9927C62.7006 57.9916 66.9312 57.9927 71.163 57.9927C74.4728 57.9927 77.7826 57.9927 81.0924 57.9916C81.3508 57.9916 81.6092 57.9689 81.9117 57.9554C81.9117 57.1556 81.9117 56.4022 81.9117 55.65C81.9117 40.0372 81.9139 24.4243 81.9015 8.81148C81.9015 8.33116 81.8101 7.83044 81.6544 7.37504C81.2695 6.25239 80.4841 5.73128 79.3038 5.73128C62.0393 5.73128 44.776 5.73921 27.5115 5.71542C26.0163 5.71316 25.2286 6.88565 25.0277 7.95506C24.9691 8.26885 24.9646 8.59285 24.9217 8.91004C24.8145 9.71436 24.1284 10.3216 23.335 10.325C22.5146 10.3272 21.7676 9.70303 21.7157 8.88625C21.5408 6.1629 23.2662 3.2243 26.0863 2.6069C26.5038 2.51514 26.9428 2.48569 27.3727 2.48569C44.6146 2.47889 61.8599 2.52534 79.104 2.44491C82.8889 2.42678 85.0973 5.41182 85.1594 8.50562C85.1932 10.1856 85.1662 11.8656 85.1662 13.5456C85.1662 13.7495 85.1662 13.9546 85.1662 14.197C85.3727 14.2129 85.534 14.2367 85.6965 14.2367C91.8456 14.2367 97.9957 14.2367 104.145 14.2367C106.337 14.2367 107.978 15.1701 108.971 17.1571C112.414 24.0448 115.852 30.9348 119.288 37.8259C119.852 38.9576 120.121 40.1708 120.136 41.4283C120.198 46.2984 120.192 51.1696 120.308 56.0374C120.372 58.7132 118.213 61.3324 115.12 61.2497C113.429 61.2044 111.735 61.2406 110.043 61.2406C109.821 61.2406 109.598 61.2406 109.38 61.2406C109.243 62.2058 109.166 63.1245 108.977 64.0183C107.961 68.808 103.603 72.5554 98.7371 73.0244C92.6332 73.6124 86.816 69.2555 86.0012 62.7416C85.9877 62.6295 85.9787 62.5162 85.9719 62.4029C85.9298 61.6288 85.5333 61.2414 84.7825 61.2406C76.3201 61.2406 67.8577 61.2406 59.3953 61.2406C59.0624 61.2406 58.7284 61.2406 58.356 61.2406H58.3571ZM85.1865 57.9644C85.3772 57.9757 85.507 57.9757 85.6356 57.9927C86.1976 58.0675 86.4966 57.8772 86.676 57.2813C86.8792 56.6039 87.203 55.9423 87.5833 55.3441C90.2093 51.2149 93.9964 49.2064 98.8398 49.7162C103.637 50.2214 106.888 52.964 108.632 57.4773C108.771 57.8387 108.9 58.0041 109.328 57.9973C111.151 57.9689 112.976 57.9882 114.8 57.9916C116.424 57.995 117.056 57.3697 117.039 55.7282C116.991 51.0473 116.924 46.3652 116.892 41.6843C116.889 41.1281 116.713 41.0012 116.186 41.0024C109.133 41.0182 102.08 41.0126 95.0267 41.0126C94.8089 41.0126 94.5923 41.0126 94.3372 41.0126V40.3068C94.3372 35.5115 94.3372 30.715 94.3372 25.9197C94.3372 25.4665 94.3226 25.0123 94.344 24.5603C94.4027 23.2734 95.741 22.5325 96.8323 23.1873C97.3999 23.5283 97.6087 24.0607 97.6075 24.7177C97.5996 28.7586 97.6053 32.7983 97.6064 36.8392C97.6064 37.1314 97.6064 37.4237 97.6064 37.7092H115.563C115.444 37.452 115.356 37.247 115.257 37.0487C112.2 30.9291 109.137 24.8118 106.089 18.6876C105.679 17.864 105.05 17.5072 104.15 17.5083C98.0375 17.5163 91.9257 17.5129 85.8128 17.514C85.6119 17.514 85.4122 17.514 85.1865 17.514V57.9633V57.9644ZM89.1756 61.3471C89.1011 65.8581 92.9278 69.7471 97.5071 69.8151C102.081 69.8831 105.965 66.0982 106.044 61.4966C106.123 56.9086 102.375 52.9799 97.8535 52.9097C93.0519 52.8349 89.2557 56.5257 89.1767 61.3471H89.1756ZM46.6673 52.9108C42.0044 52.9142 38.2387 56.6809 38.2297 61.3516C38.2207 65.9634 42.0383 69.8174 46.6109 69.8151C51.2929 69.8128 55.0642 66.0235 55.0642 61.321C55.0642 56.6832 51.2951 52.9074 46.6662 52.9097L46.6673 52.9108Z" fill="#225536" stroke="#225536" stroke-width="3"/>
<path id="Vector_2" d="M18.3574 28.8255C13.9022 28.8255 9.447 28.8301 4.9918 28.8233C3.78547 28.821 3.01924 27.7946 3.38373 26.6845C3.6083 26.0014 4.12739 25.6706 4.81125 25.5675C4.92184 25.5505 5.03694 25.5595 5.14866 25.5595C13.9462 25.5595 22.7438 25.5595 31.5413 25.5595C32.6483 25.5595 33.3502 26.1554 33.3897 27.1115C33.4304 28.1186 32.7634 28.8187 31.723 28.821C29.2042 28.8278 26.6855 28.821 24.1668 28.8187C22.2303 28.8187 20.295 28.8187 18.3585 28.8187V28.8244L18.3574 28.8255Z" fill="#225536" stroke="#225536" stroke-width="3"/>
<path id="Vector_3" d="M26.1528 38.7964C21.6976 38.7964 17.2424 38.7998 12.7861 38.793C11.4364 38.7907 10.6465 37.5004 11.2908 36.3642C11.644 35.7423 12.2263 35.5259 12.9057 35.5259C21.4775 35.5293 30.0505 35.5338 38.6224 35.5383C38.9609 35.5383 39.3017 35.5146 39.6357 35.5497C40.6277 35.6562 41.2348 36.3585 41.1716 37.2942C41.1106 38.1983 40.4381 38.7953 39.4619 38.7953C35.0248 38.7975 30.5888 38.7953 26.1516 38.7953L26.1528 38.7964Z" fill="#225536" stroke="#225536" stroke-width="3"/>
<path id="Vector_4" d="M17.0528 49.0059C12.7297 49.0059 8.40538 49.0161 4.08221 48.9912C3.59923 48.9878 3.05079 48.8881 2.64906 48.6434C2.05887 48.2832 1.89186 47.6397 2.06451 46.9498C2.23378 46.2724 2.69307 45.8498 3.36112 45.7875C4.21876 45.7071 5.08655 45.7229 5.94983 45.7218C14.0139 45.7173 22.079 45.7173 30.1431 45.7173C31.5232 45.7173 32.3515 46.6202 32.0479 47.7938C31.873 48.4701 31.3404 48.9312 30.6441 48.9844C30.3078 49.0105 29.9682 49.0071 29.6296 49.0071C25.4374 49.0082 21.2462 49.0071 17.054 49.0071L17.0528 49.0059Z" fill="#225536" stroke="#225536" stroke-width="3"/>
<path id="Vector_5" d="M30.0595 15.1709C34.4752 15.1709 38.8909 15.1743 43.3078 15.1675C44.0334 15.1664 44.5976 15.4258 44.9102 16.0964C45.1765 16.6662 45.1223 17.2361 44.7567 17.7549C44.399 18.2624 43.8867 18.4244 43.2863 18.4233C40.7123 18.4165 38.1371 18.421 35.5631 18.421C29.3994 18.421 23.2357 18.421 17.072 18.4199C16.8463 18.4199 16.6195 18.4255 16.396 18.4006C15.579 18.3111 14.9843 17.6518 14.9764 16.8396C14.9685 15.9673 15.5237 15.3023 16.3622 15.1913C16.5292 15.1697 16.6996 15.1709 16.8677 15.1709C21.2654 15.1709 25.6619 15.1709 30.0595 15.1709Z" fill="#225536" stroke="#225536" stroke-width="3"/>
</g>
</svg>
