<svg width="73" height="83" viewBox="0 0 73 83" fill="none" xmlns="http://www.w3.org/2000/svg">
<g id="Layer_1" clip-path="url(#clip0_37_1357)">
<path id="Vector" d="M72.9971 20.7142C73.063 30.4221 72.0128 39.0896 69.3143 47.5074C65.9564 57.9821 60.382 66.9601 52.0054 74.035C47.8077 77.5788 43.1625 80.3703 38.1893 82.6176C37.0387 83.1363 35.9382 83.1251 34.786 82.608C25.4235 78.4015 17.5587 72.2823 11.5981 63.738C6.81639 56.8856 3.76779 49.2569 1.95778 41.0856C0.0881235 32.6422 -0.356137 24.1012 0.262374 15.4881C0.367552 14.0283 0.544942 12.5717 0.74117 11.1199C1.04415 8.8838 2.35652 7.74894 4.55898 7.917C7.9137 8.17151 11.2496 8.07387 14.5745 7.58087C21.3404 6.57726 27.7092 4.35236 33.7248 1.05503C34.0246 0.89176 34.3182 0.717289 34.6133 0.544419C35.8833 -0.196681 37.147 -0.16947 38.4123 0.558825C44.5534 4.08665 51.1012 6.43801 58.0696 7.52324C61.1512 8.00344 64.2547 8.21312 67.374 7.96662C70.9626 7.68331 71.9626 8.52045 72.4052 12.1811C72.5434 13.3192 72.6737 14.4589 72.7443 15.6017C72.8683 17.5977 72.9437 19.5953 72.9971 20.7142ZM6.32347 23.2576C6.44277 29.4185 7.06286 35.5026 8.59029 41.4682C12.5792 57.0601 21.4111 68.6568 35.7812 75.6788C36.271 75.9189 36.6666 75.9509 37.169 75.706C49.2503 69.8269 57.7352 60.5463 62.451 47.7635C66.2594 37.4394 67.1903 26.7374 66.2201 15.8146C66.1683 15.2272 66.2343 14.7278 65.3191 14.731C55.3397 14.7598 46.0055 12.1251 37.1721 7.50244C36.709 7.25914 36.3589 7.21912 35.8754 7.47362C26.9981 12.1347 17.6136 14.7662 7.57776 14.747C7.06442 14.747 6.8368 14.8638 6.8054 15.4368C6.66726 18.0443 6.4883 20.6502 6.32347 23.256V23.2576Z" fill="#225536"/>
<path id="Vector_2" d="M33.6115 44.7287C34.916 43.4098 36.1672 42.1692 37.39 40.8999C42.2094 35.8995 47.0162 30.8879 51.834 25.8859C53.2688 24.3957 55.3159 24.3124 56.6581 25.6698C58.0144 27.0399 57.9673 29.0888 56.5184 30.5934C49.6347 37.7467 42.7463 44.8968 35.8532 52.042C34.2284 53.7259 32.0432 53.6091 30.6257 51.7507C27.8644 48.1333 25.1187 44.503 22.3825 40.8647C21.359 39.5042 21.3182 37.9964 22.2036 36.7158C23.0105 35.5522 24.4657 34.9711 25.8 35.4945C26.4908 35.7651 27.1721 36.2949 27.6399 36.8871C29.654 39.4385 31.588 42.0572 33.6099 44.7271L33.6115 44.7287Z" fill="#225536"/>
</g>
<defs>
<clipPath id="clip0_37_1357">
<rect width="73" height="83" fill="white"/>
</clipPath>
</defs>
</svg>
